<?xml version="1.0" standalone="no"?>
<!DOCTYPE svg PUBLIC "-//W3C//DTD SVG 20010904//EN"
 "http://www.w3.org/TR/2001/REC-SVG-20010904/DTD/svg10.dtd">
<svg version="1.0" xmlns="http://www.w3.org/2000/svg"
 width="1584.000000pt" height="383.000000pt" viewBox="0 0 1584.000000 383.000000"
 preserveAspectRatio="xMidYMid meet">
<metadata>
Created by potrace 1.16, written by Peter Selinger 2001-2019
</metadata>
<g transform="translate(0.000000,383.000000) scale(0.100000,-0.100000)"
fill="#000000" stroke="none">
<path d="M0 1915 l0 -1915 7920 0 7920 0 0 1915 0 1915 -7920 0 -7920 0 0
-1915z m3540 1441 c126 -51 249 -166 378 -350 l53 -76 -259 0 c-306 0 -306 0
-442 100 -52 39 -146 103 -208 143 l-114 72 29 22 c42 34 160 91 223 108 38
10 89 14 165 11 91 -2 121 -8 175 -30z m-831 -162 c108 -31 260 -120 494 -288
170 -122 46 -110 1227 -116 1005 -5 1026 -5 1052 -25 59 -44 87 -145 55 -202
-47 -83 -326 -364 -496 -500 -233 -185 -395 -282 -795 -479 -303 -148 -445
-233 -578 -347 -180 -156 -328 -374 -414 -612 l-32 -90 -613 0 -614 0 1 235
c1 332 28 539 100 779 31 102 109 303 132 339 6 9 29 2 93 -31 143 -73 300
-99 464 -78 165 22 195 37 195 96 0 26 -6 39 -25 51 -22 14 -32 14 -116 0
-116 -20 -228 -20 -304 -1 -191 49 -388 215 -484 410 -105 214 -78 432 82 640
86 113 249 216 377 239 39 7 140 -3 199 -20z m4393 -688 c86 -20 220 -71 250
-96 19 -15 21 -22 12 -37 -6 -10 -28 -52 -49 -93 -21 -41 -40 -76 -41 -78 -1
-2 -34 13 -73 32 -123 63 -206 81 -366 80 -121 0 -148 -3 -197 -23 -72 -28
-98 -59 -98 -116 0 -36 5 -48 30 -69 39 -33 130 -60 300 -92 341 -62 462 -120
527 -252 23 -48 28 -69 27 -132 -1 -91 -31 -158 -100 -226 -150 -145 -489
-190 -811 -109 -92 24 -234 85 -281 123 l-23 18 50 88 c27 49 53 92 58 96 4 5
42 -12 83 -36 95 -56 198 -89 327 -104 182 -21 361 19 397 89 25 47 20 79 -16
115 -46 46 -120 71 -347 116 -317 64 -413 108 -479 218 -24 42 -27 56 -27 142
0 79 4 102 22 135 63 113 168 181 339 219 89 20 386 15 486 -8z m828 -241 l0
-245 340 0 340 0 0 245 0 245 140 0 140 0 0 -615 0 -615 -140 0 -140 0 0 260
0 260 -340 0 -340 0 0 -260 0 -260 -140 0 -140 0 0 615 0 615 140 0 140 0 0
-245z m2132 218 c98 -28 142 -51 204 -107 204 -182 158 -517 -89 -646 -34 -18
-63 -34 -65 -36 -2 -1 54 -78 125 -171 70 -92 141 -185 156 -205 l28 -38 -160
0 -159 0 -139 185 -138 184 -177 1 -178 0 0 -185 0 -185 -140 0 -140 0 0 616
0 615 398 -3 c368 -4 403 -6 474 -25z m1646 -80 l-3 -108 -392 0 -393 0 0
-142 0 -143 350 0 350 0 0 -105 0 -105 -350 0 -350 0 0 -155 0 -155 353 0
c193 1 376 0 405 0 l52 0 0 -105 0 -105 -549 0 -549 0 -1 580 c-1 319 1 596 5
615 l6 35 534 0 535 0 -3 -107z m490 -25 c179 -568 238 -748 245 -748 4 0 7 6
7 14 0 7 41 144 90 302 50 159 109 351 132 427 l42 137 138 0 138 0 11 -27 c5
-15 69 -214 140 -443 72 -228 132 -417 134 -419 2 -2 11 23 21 55 9 33 72 232
139 444 l123 385 145 3 146 3 -34 -98 c-18 -54 -112 -329 -209 -612 -97 -282
-176 -515 -176 -517 0 -2 -67 -4 -150 -4 l-149 0 -51 158 c-27 86 -89 282
-137 434 -48 152 -89 276 -90 274 -4 -3 -119 -368 -203 -641 l-68 -220 -148
-3 -149 -2 -27 77 c-15 43 -77 222 -138 398 -94 273 -243 702 -258 743 -3 9
30 12 145 12 l150 0 41 -132z m-8058 -1059 c-107 -205 -162 -414 -185 -712
l-7 -77 -286 2 c-330 3 -300 -11 -251 118 79 207 275 445 483 589 71 49 277
163 283 157 1 -1 -15 -36 -37 -77z"/>
<path d="M3928 2455 c-64 -35 -88 -135 -47 -202 29 -47 71 -66 131 -61 136 14
173 186 55 258 -38 23 -101 25 -139 5z"/>
<path d="M9470 2079 l0 -211 228 4 c213 3 230 5 280 27 190 86 167 324 -38
381 -19 5 -133 10 -252 10 l-218 0 0 -211z"/>
</g>
</svg>
